<svg width="853" height="568" viewBox="0 0 853 568" fill="none" xmlns="http://www.w3.org/2000/svg">
<path d="M444.01 154.786L447.282 159.835C448.527 161.762 451.102 162.293 453.012 161.048L667.659 21.6197C669.586 20.374 670.117 17.7997 668.872 15.8897L665.6 10.8408C664.354 8.9142 661.78 8.38273 659.87 9.62837L445.222 149.04C443.312 150.302 442.764 152.86 444.01 154.786Z" fill="url(#paint0_linear_197_268)"/>
<path d="M510.593 146.465L513.865 151.514C515.11 153.441 517.684 153.972 519.594 152.727L734.242 13.2823C736.169 12.0366 736.7 9.46233 735.454 7.55236L732.183 2.50339C730.937 0.576815 728.363 0.045345 726.453 1.29098L511.805 140.719C509.895 141.965 509.347 144.539 510.593 146.465Z" fill="url(#paint1_linear_197_268)"/>
<path d="M481.462 194.314L484.734 199.363C485.979 201.29 488.553 201.821 490.463 200.576L705.111 61.1478C707.038 59.9022 707.569 57.3279 706.323 55.4179L703.052 50.3689C701.806 48.4424 699.232 47.9109 697.322 49.1565L482.674 188.584C480.764 189.83 480.216 192.388 481.462 194.314Z" fill="url(#paint2_linear_197_268)"/>
<path d="M529.327 231.766L532.599 236.815C533.844 238.742 536.419 239.273 538.329 238.028L752.976 98.5999C754.903 97.3542 755.434 94.7799 754.189 92.87L750.917 87.821C749.671 85.8944 747.097 85.3629 745.187 86.6086L530.539 226.036C528.613 227.282 528.065 229.84 529.327 231.766Z" fill="url(#paint3_linear_197_268)"/>
<path d="M504.348 188.07L507.62 193.119C508.866 195.045 511.44 195.577 513.35 194.331L727.997 54.9031C729.924 53.6574 730.455 51.0831 729.21 49.1731L725.938 44.1242C724.692 42.1976 722.118 41.6661 720.208 42.9118L505.56 182.34C503.65 183.585 503.102 186.143 504.348 188.07Z" fill="url(#paint4_linear_197_268)"/>
<path d="M523.083 173.504L526.355 178.553C527.6 180.479 530.175 181.011 532.085 179.765L746.732 40.3374C748.659 39.0918 749.19 36.5174 747.945 34.6075L744.673 29.5585C743.427 27.6319 740.853 27.1005 738.943 28.3461L524.295 167.774C522.369 169.02 521.837 171.594 523.083 173.504Z" fill="url(#paint5_linear_197_268)"/>
<path d="M404.482 258.805L407.754 263.854C408.999 265.78 411.573 266.312 413.483 265.066L628.131 125.638C630.058 124.393 630.589 121.818 629.343 119.908L626.071 114.86C624.826 112.933 622.252 112.401 620.342 113.647L405.694 253.075C403.784 254.321 403.236 256.895 404.482 258.805Z" fill="url(#paint6_linear_197_268)"/>
<path d="M550.121 238.011L553.393 243.06C554.638 244.987 557.213 245.518 559.123 244.273L773.77 104.845C775.697 103.599 776.228 101.025 774.983 99.1147L771.711 94.0658C770.465 92.1392 767.891 91.6077 765.981 92.8533L551.333 232.281C549.423 233.527 548.875 236.085 550.121 238.011Z" fill="url(#paint7_linear_197_268)"/>
<path d="M439.857 279.615L443.129 284.664C444.375 286.591 446.949 287.122 448.859 285.877L663.507 146.449C665.433 145.203 665.965 142.629 664.719 140.719L661.447 135.67C660.202 133.743 657.627 133.212 655.717 134.457L441.07 273.885C439.143 275.131 438.612 277.705 439.857 279.615Z" fill="url(#paint8_linear_197_268)"/>
<path d="M487.706 327.481L490.978 332.53C492.224 334.456 494.798 334.988 496.708 333.742L711.356 194.314C713.282 193.069 713.814 190.494 712.568 188.584L709.296 183.535C708.051 181.609 705.476 181.077 703.566 182.323L488.919 321.751C487.009 322.98 486.461 325.554 487.706 327.481Z" fill="url(#paint9_linear_197_268)"/>
<path d="M545.969 225.522L549.241 230.571C550.487 232.497 553.061 233.029 554.971 231.783L769.618 92.3551C771.545 91.1094 772.076 88.5351 770.831 86.6252L767.559 81.5762C766.313 79.6496 763.739 79.1182 761.829 80.3638L547.182 219.792C545.255 221.037 544.724 223.595 545.969 225.522Z" fill="url(#paint10_linear_197_268)"/>
<path d="M620.873 194.314L624.145 199.363C625.39 201.29 627.965 201.821 629.875 200.576L844.522 61.1478C846.449 59.9022 846.98 57.3279 845.735 55.4179L842.463 50.3689C841.217 48.4424 838.643 47.9109 836.733 49.1565L622.085 188.584C620.159 189.83 619.627 192.388 620.873 194.314Z" fill="url(#paint11_linear_197_268)"/>
<path d="M529.327 244.239L532.599 249.288C533.844 251.215 536.419 251.746 538.329 250.501L752.976 111.073C754.903 109.827 755.434 107.253 754.189 105.343L750.917 100.294C749.671 98.3673 747.097 97.8359 745.187 99.0815L530.539 238.509C528.613 239.755 528.065 242.329 529.327 244.239Z" fill="url(#paint12_linear_197_268)"/>
<path d="M627.102 250.484L630.373 255.533C631.619 257.46 634.193 257.991 636.103 256.745L850.751 117.318C852.677 116.072 853.209 113.498 851.963 111.588L848.691 106.539C847.446 104.612 844.871 104.081 842.962 105.326L628.314 244.754C626.404 246 625.856 248.574 627.102 250.484Z" fill="url(#paint13_linear_197_268)"/>
<path d="M496.027 231.766L499.299 236.815C500.545 238.742 503.119 239.273 505.029 238.028L719.676 98.5999C721.603 97.3542 722.134 94.7799 720.889 92.8699L717.617 87.821C716.371 85.8944 713.797 85.3629 711.887 86.6086L497.24 226.036C495.33 227.282 494.781 229.84 496.027 231.766Z" fill="url(#paint14_linear_197_268)"/>
<path d="M570.932 217.201L574.203 222.25C575.449 224.176 578.023 224.708 579.933 223.462L794.581 84.0343C796.507 82.7887 797.039 80.2143 795.793 78.3044L792.521 73.2554C791.276 71.3288 788.701 70.7974 786.792 72.043L572.144 211.471C570.234 212.717 569.686 215.274 570.932 217.201Z" fill="url(#paint15_linear_197_268)"/>
<path d="M579.252 267.142L582.524 272.191C583.77 274.118 586.344 274.649 588.254 273.404L802.902 133.976C804.828 132.73 805.36 130.156 804.114 128.246L800.842 123.197C799.597 121.27 797.022 120.739 795.112 121.985L580.465 261.396C578.555 262.641 578.007 265.216 579.252 267.142Z" fill="url(#paint16_linear_197_268)"/>
<path d="M627.102 292.105L630.373 297.154C631.619 299.08 634.193 299.612 636.103 298.366L850.751 158.938C852.677 157.693 853.209 155.118 851.963 153.208L848.691 148.159C847.446 146.233 844.871 145.701 842.962 146.947L628.314 286.375C626.404 287.621 625.856 290.178 627.102 292.105Z" fill="url(#paint17_linear_197_268)"/>
<path d="M496.027 287.936L499.299 292.985C500.545 294.912 503.119 295.443 505.029 294.197L719.676 154.77C721.603 153.524 722.134 150.95 720.889 149.04L717.617 143.991C716.371 142.064 713.797 141.533 711.887 142.778L497.24 282.206C495.33 283.452 494.781 286.026 496.027 287.936Z" fill="url(#paint18_linear_197_268)"/>
<path d="M458.575 262.974L461.847 268.023C463.093 269.949 465.667 270.481 467.577 269.235L682.225 129.807C684.151 128.561 684.683 125.987 683.437 124.077L680.165 119.028C678.919 117.102 676.345 116.57 674.435 117.816L459.788 257.244C457.878 258.489 457.33 261.047 458.575 262.974Z" fill="url(#paint19_linear_197_268)"/>
<path d="M40.3747 387.819L43.6465 392.868C44.8922 394.795 47.4665 395.326 49.3764 394.081L264.024 254.653C265.951 253.407 266.482 250.833 265.236 248.923L261.965 243.874C260.719 241.947 258.145 241.416 256.235 242.661L41.5871 382.073C39.6605 383.318 39.1124 385.893 40.3747 387.819Z" fill="url(#paint20_linear_197_268)"/>
<path d="M106.942 379.482L110.213 384.531C111.459 386.457 114.033 386.989 115.943 385.743L330.591 246.315C332.518 245.07 333.049 242.495 331.803 240.585L328.532 235.537C327.286 233.61 324.712 233.078 322.802 234.324L108.171 373.752C106.244 374.998 105.696 377.572 106.942 379.482Z" fill="url(#paint21_linear_197_268)"/>
<path d="M77.8265 427.347L81.0984 432.396C82.344 434.323 84.9183 434.854 86.8283 433.609L301.476 294.181C303.402 292.935 303.934 290.361 302.688 288.451L299.416 283.402C298.171 281.475 295.596 280.944 293.686 282.19L79.0389 421.618C77.1124 422.863 76.5643 425.421 77.8265 427.347Z" fill="url(#paint22_linear_197_268)"/>
<path d="M125.675 464.8L128.947 469.848C130.193 471.775 132.767 472.306 134.677 471.061L349.325 331.633C351.251 330.387 351.783 327.813 350.537 325.903L347.265 320.854C346.02 318.928 343.445 318.396 341.535 319.642L126.888 459.07C124.978 460.315 124.43 462.873 125.675 464.8Z" fill="url(#paint23_linear_197_268)"/>
<path d="M100.713 421.103L103.985 426.152C105.231 428.078 107.805 428.61 109.715 427.364L324.363 287.936C326.289 286.691 326.821 284.116 325.575 282.206L322.303 277.157C321.058 275.231 318.483 274.699 316.573 275.945L101.926 415.373C99.9991 416.618 99.451 419.176 100.713 421.103Z" fill="url(#paint24_linear_197_268)"/>
<path d="M119.431 406.537L122.703 411.586C123.948 413.513 126.523 414.044 128.433 412.798L343.08 273.371C345.007 272.125 345.538 269.551 344.293 267.641L341.021 262.592C339.775 260.665 337.201 260.134 335.291 261.379L120.643 400.807C118.733 402.053 118.185 404.61 119.431 406.537Z" fill="url(#paint25_linear_197_268)"/>
<path d="M0.829888 491.838L4.10175 496.887C5.34738 498.814 7.92169 499.345 9.83167 498.099L224.479 358.672C226.406 357.426 226.937 354.852 225.692 352.942L222.42 347.893C221.174 345.966 218.6 345.435 216.69 346.68L2.05891 486.108C0.132333 487.354 -0.415746 489.928 0.829888 491.838Z" fill="url(#paint26_linear_197_268)"/>
<path d="M146.486 471.044L149.758 476.093C151.003 478.02 153.577 478.551 155.487 477.306L370.135 337.878C372.062 336.632 372.593 334.058 371.347 332.148L368.076 327.099C366.83 325.172 364.256 324.641 362.346 325.886L147.698 465.298C145.772 466.56 145.24 469.118 146.486 471.044Z" fill="url(#paint27_linear_197_268)"/>
<path d="M36.2058 512.648L39.4777 517.697C40.7233 519.624 43.2976 520.155 45.2076 518.91L259.855 379.482C261.782 378.236 262.313 375.662 261.068 373.752L257.796 368.703C256.55 366.776 253.976 366.245 252.066 367.491L37.4182 506.918C35.5082 508.164 34.9602 510.738 36.2058 512.648Z" fill="url(#paint28_linear_197_268)"/>
<path d="M84.0549 560.514L87.3267 565.563C88.5724 567.489 91.1467 568.021 93.0566 566.775L307.704 427.347C309.631 426.102 310.162 423.527 308.917 421.617L305.645 416.569C304.399 414.642 301.825 414.11 299.915 415.356L85.2839 554.767C83.3573 556.013 82.8092 558.587 84.0549 560.514Z" fill="url(#paint29_linear_197_268)"/>
<path d="M142.317 458.555L145.589 463.604C146.835 465.53 149.409 466.062 151.319 464.816L365.966 325.388C367.893 324.143 368.424 321.568 367.179 319.658L363.907 314.609C362.661 312.683 360.087 312.151 358.177 313.397L143.529 452.825C141.619 454.07 141.071 456.628 142.317 458.555Z" fill="url(#paint30_linear_197_268)"/>
<path d="M217.221 427.347L220.493 432.396C221.739 434.323 224.313 434.854 226.223 433.609L440.871 294.181C442.797 292.935 443.329 290.361 442.083 288.451L438.811 283.402C437.566 281.475 434.991 280.944 433.081 282.19L218.434 421.618C216.524 422.863 215.976 425.421 217.221 427.347Z" fill="url(#paint31_linear_197_268)"/>
<path d="M125.675 477.272L128.947 482.321C130.193 484.248 132.767 484.779 134.677 483.534L349.325 344.106C351.251 342.86 351.783 340.286 350.537 338.376L347.265 333.327C346.019 331.4 343.445 330.869 341.535 332.115L126.888 471.542C124.978 472.788 124.43 475.362 125.675 477.272Z" fill="url(#paint32_linear_197_268)"/>
<path d="M223.466 483.517L226.738 488.566C227.984 490.493 230.558 491.024 232.468 489.779L447.115 350.351C449.042 349.105 449.573 346.531 448.328 344.621L445.056 339.572C443.81 337.645 441.236 337.114 439.326 338.359L224.678 477.787C222.769 479.033 222.22 481.607 223.466 483.517Z" fill="url(#paint33_linear_197_268)"/>
<path d="M92.3752 464.799L95.6471 469.848C96.8927 471.775 99.467 472.306 101.377 471.061L316.025 331.633C317.951 330.387 318.483 327.813 317.237 325.903L313.965 320.854C312.719 318.927 310.145 318.396 308.235 319.642L93.6043 459.07C91.6777 460.315 91.1296 462.873 92.3752 464.799Z" fill="url(#paint34_linear_197_268)"/>
<path d="M167.28 450.234L170.552 455.283C171.797 457.209 174.372 457.741 176.281 456.495L390.929 317.067C392.856 315.822 393.387 313.247 392.141 311.337L388.87 306.289C387.624 304.362 385.05 303.83 383.14 305.076L168.492 444.504C166.582 445.75 166.034 448.307 167.28 450.234Z" fill="url(#paint35_linear_197_268)"/>
<path d="M175.617 500.159L178.889 505.208C180.134 507.134 182.709 507.666 184.619 506.42L399.266 366.992C401.193 365.747 401.724 363.172 400.479 361.262L397.207 356.213C395.961 354.287 393.387 353.755 391.477 355.001L176.829 494.429C174.903 495.675 174.355 498.249 175.617 500.159Z" fill="url(#paint36_linear_197_268)"/>
<path d="M223.466 525.138L226.738 530.187C227.984 532.114 230.558 532.645 232.468 531.399L447.115 391.971C449.042 390.726 449.573 388.152 448.328 386.242L445.056 381.193C443.81 379.266 441.236 378.735 439.326 379.98L224.678 519.408C222.769 520.654 222.22 523.211 223.466 525.138Z" fill="url(#paint37_linear_197_268)"/>
<path d="M92.3752 520.969L95.6471 526.018C96.8927 527.945 99.467 528.476 101.377 527.231L316.025 387.803C317.951 386.557 318.483 383.983 317.237 382.073L313.965 377.024C312.719 375.097 310.145 374.566 308.235 375.811L93.6043 515.239C91.6777 516.485 91.1296 519.059 92.3752 520.969Z" fill="url(#paint38_linear_197_268)"/>
<path d="M54.9234 496.007L58.1953 501.056C59.4409 502.982 62.0152 503.514 63.9252 502.268L278.573 362.84C280.499 361.595 281.031 359.02 279.785 357.11L276.513 352.061C275.268 350.135 272.693 349.603 270.783 350.849L56.1524 490.277C54.2258 491.522 53.6778 494.08 54.9234 496.007Z" fill="url(#paint39_linear_197_268)"/>
<defs>
<linearGradient id="paint0_linear_197_268" x1="403.72" y1="191.509" x2="639.604" y2="-12.3183" gradientUnits="userSpaceOnUse">
<stop stop-color="#ED1E79"/>
<stop offset="1" stop-color="#662D91"/>
</linearGradient>
<linearGradient id="paint1_linear_197_268" x1="470.299" y1="183.183" x2="706.184" y2="-20.6443" gradientUnits="userSpaceOnUse">
<stop stop-color="#ED1E79"/>
<stop offset="1" stop-color="#662D91"/>
</linearGradient>
<linearGradient id="paint2_linear_197_268" x1="441.168" y1="231.037" x2="677.053" y2="27.2095" gradientUnits="userSpaceOnUse">
<stop stop-color="#ED1E79"/>
<stop offset="1" stop-color="#662D91"/>
</linearGradient>
<linearGradient id="paint3_linear_197_268" x1="489.019" y1="268.483" x2="724.904" y2="64.6556" gradientUnits="userSpaceOnUse">
<stop stop-color="#ED1E79"/>
<stop offset="1" stop-color="#662D91"/>
</linearGradient>
<linearGradient id="paint4_linear_197_268" x1="464.055" y1="224.794" x2="699.94" y2="20.9664" gradientUnits="userSpaceOnUse">
<stop stop-color="#ED1E79"/>
<stop offset="1" stop-color="#662D91"/>
</linearGradient>
<linearGradient id="paint5_linear_197_268" x1="482.782" y1="210.229" x2="718.666" y2="6.40147" gradientUnits="userSpaceOnUse">
<stop stop-color="#ED1E79"/>
<stop offset="1" stop-color="#662D91"/>
</linearGradient>
<linearGradient id="paint6_linear_197_268" x1="364.181" y1="295.537" x2="600.065" y2="91.7095" gradientUnits="userSpaceOnUse">
<stop stop-color="#ED1E79"/>
<stop offset="1" stop-color="#662D91"/>
</linearGradient>
<linearGradient id="paint7_linear_197_268" x1="509.825" y1="274.723" x2="745.71" y2="70.8957" gradientUnits="userSpaceOnUse">
<stop stop-color="#ED1E79"/>
<stop offset="1" stop-color="#662D91"/>
</linearGradient>
<linearGradient id="paint8_linear_197_268" x1="399.55" y1="316.34" x2="635.435" y2="112.512" gradientUnits="userSpaceOnUse">
<stop stop-color="#ED1E79"/>
<stop offset="1" stop-color="#662D91"/>
</linearGradient>
<linearGradient id="paint9_linear_197_268" x1="447.4" y1="364.188" x2="683.285" y2="160.361" gradientUnits="userSpaceOnUse">
<stop stop-color="#ED1E79"/>
<stop offset="1" stop-color="#662D91"/>
</linearGradient>
<linearGradient id="paint10_linear_197_268" x1="505.665" y1="262.24" x2="741.55" y2="58.4129" gradientUnits="userSpaceOnUse">
<stop stop-color="#ED1E79"/>
<stop offset="1" stop-color="#662D91"/>
</linearGradient>
<linearGradient id="paint11_linear_197_268" x1="580.569" y1="231.028" x2="816.454" y2="27.2014" gradientUnits="userSpaceOnUse">
<stop stop-color="#ED1E79"/>
<stop offset="1" stop-color="#662D91"/>
</linearGradient>
<linearGradient id="paint12_linear_197_268" x1="489.018" y1="280.966" x2="724.903" y2="77.1387" gradientUnits="userSpaceOnUse">
<stop stop-color="#ED1E79"/>
<stop offset="1" stop-color="#662D91"/>
</linearGradient>
<linearGradient id="paint13_linear_197_268" x1="586.807" y1="287.202" x2="822.692" y2="83.374" gradientUnits="userSpaceOnUse">
<stop stop-color="#ED1E79"/>
<stop offset="1" stop-color="#662D91"/>
</linearGradient>
<linearGradient id="paint14_linear_197_268" x1="455.729" y1="268.485" x2="691.615" y2="64.6577" gradientUnits="userSpaceOnUse">
<stop stop-color="#ED1E79"/>
<stop offset="1" stop-color="#662D91"/>
</linearGradient>
<linearGradient id="paint15_linear_197_268" x1="530.633" y1="253.917" x2="766.518" y2="50.0895" gradientUnits="userSpaceOnUse">
<stop stop-color="#ED1E79"/>
<stop offset="1" stop-color="#662D91"/>
</linearGradient>
<linearGradient id="paint16_linear_197_268" x1="538.952" y1="303.848" x2="774.837" y2="100.021" gradientUnits="userSpaceOnUse">
<stop stop-color="#ED1E79"/>
<stop offset="1" stop-color="#662D91"/>
</linearGradient>
<linearGradient id="paint17_linear_197_268" x1="586.805" y1="328.812" x2="822.69" y2="124.985" gradientUnits="userSpaceOnUse">
<stop stop-color="#ED1E79"/>
<stop offset="1" stop-color="#662D91"/>
</linearGradient>
<linearGradient id="paint18_linear_197_268" x1="455.726" y1="324.658" x2="691.61" y2="120.831" gradientUnits="userSpaceOnUse">
<stop stop-color="#ED1E79"/>
<stop offset="1" stop-color="#662D91"/>
</linearGradient>
<linearGradient id="paint19_linear_197_268" x1="418.276" y1="299.695" x2="654.161" y2="95.8669" gradientUnits="userSpaceOnUse">
<stop stop-color="#ED1E79"/>
<stop offset="1" stop-color="#662D91"/>
</linearGradient>
<linearGradient id="paint20_linear_197_268" x1="0.064167" y1="424.55" x2="235.95" y2="220.722" gradientUnits="userSpaceOnUse">
<stop stop-color="#ED1E79"/>
<stop offset="1" stop-color="#662D91"/>
</linearGradient>
<linearGradient id="paint21_linear_197_268" x1="66.6449" y1="416.224" x2="302.529" y2="212.396" gradientUnits="userSpaceOnUse">
<stop stop-color="#ED1E79"/>
<stop offset="1" stop-color="#662D91"/>
</linearGradient>
<linearGradient id="paint22_linear_197_268" x1="37.5125" y1="464.077" x2="273.397" y2="260.25" gradientUnits="userSpaceOnUse">
<stop stop-color="#ED1E79"/>
<stop offset="1" stop-color="#662D91"/>
</linearGradient>
<linearGradient id="paint23_linear_197_268" x1="85.3639" y1="501.523" x2="321.25" y2="297.696" gradientUnits="userSpaceOnUse">
<stop stop-color="#ED1E79"/>
<stop offset="1" stop-color="#662D91"/>
</linearGradient>
<linearGradient id="paint24_linear_197_268" x1="60.4" y1="457.834" x2="296.285" y2="254.007" gradientUnits="userSpaceOnUse">
<stop stop-color="#ED1E79"/>
<stop offset="1" stop-color="#662D91"/>
</linearGradient>
<linearGradient id="paint25_linear_197_268" x1="79.1264" y1="443.269" x2="315.011" y2="239.442" gradientUnits="userSpaceOnUse">
<stop stop-color="#ED1E79"/>
<stop offset="1" stop-color="#662D91"/>
</linearGradient>
<linearGradient id="paint26_linear_197_268" x1="-39.4744" y1="528.577" x2="196.41" y2="324.75" gradientUnits="userSpaceOnUse">
<stop stop-color="#ED1E79"/>
<stop offset="1" stop-color="#662D91"/>
</linearGradient>
<linearGradient id="paint27_linear_197_268" x1="106.17" y1="507.763" x2="342.055" y2="303.936" gradientUnits="userSpaceOnUse">
<stop stop-color="#ED1E79"/>
<stop offset="1" stop-color="#662D91"/>
</linearGradient>
<linearGradient id="paint28_linear_197_268" x1="-4.10552" y1="549.38" x2="231.78" y2="345.553" gradientUnits="userSpaceOnUse">
<stop stop-color="#ED1E79"/>
<stop offset="1" stop-color="#662D91"/>
</linearGradient>
<linearGradient id="paint29_linear_197_268" x1="43.7456" y1="597.229" x2="279.63" y2="393.401" gradientUnits="userSpaceOnUse">
<stop stop-color="#ED1E79"/>
<stop offset="1" stop-color="#662D91"/>
</linearGradient>
<linearGradient id="paint30_linear_197_268" x1="102.009" y1="495.281" x2="337.895" y2="291.453" gradientUnits="userSpaceOnUse">
<stop stop-color="#ED1E79"/>
<stop offset="1" stop-color="#662D91"/>
</linearGradient>
<linearGradient id="paint31_linear_197_268" x1="176.914" y1="464.069" x2="412.799" y2="260.241" gradientUnits="userSpaceOnUse">
<stop stop-color="#ED1E79"/>
<stop offset="1" stop-color="#662D91"/>
</linearGradient>
<linearGradient id="paint32_linear_197_268" x1="85.3628" y1="514.006" x2="321.248" y2="310.179" gradientUnits="userSpaceOnUse">
<stop stop-color="#ED1E79"/>
<stop offset="1" stop-color="#662D91"/>
</linearGradient>
<linearGradient id="paint33_linear_197_268" x1="183.152" y1="520.242" x2="419.037" y2="316.414" gradientUnits="userSpaceOnUse">
<stop stop-color="#ED1E79"/>
<stop offset="1" stop-color="#662D91"/>
</linearGradient>
<linearGradient id="paint34_linear_197_268" x1="52.0742" y1="501.525" x2="287.959" y2="297.698" gradientUnits="userSpaceOnUse">
<stop stop-color="#ED1E79"/>
<stop offset="1" stop-color="#662D91"/>
</linearGradient>
<linearGradient id="paint35_linear_197_268" x1="126.978" y1="486.957" x2="362.862" y2="283.13" gradientUnits="userSpaceOnUse">
<stop stop-color="#ED1E79"/>
<stop offset="1" stop-color="#662D91"/>
</linearGradient>
<linearGradient id="paint36_linear_197_268" x1="135.296" y1="536.889" x2="371.182" y2="333.062" gradientUnits="userSpaceOnUse">
<stop stop-color="#ED1E79"/>
<stop offset="1" stop-color="#662D91"/>
</linearGradient>
<linearGradient id="paint37_linear_197_268" x1="183.149" y1="561.852" x2="419.034" y2="358.025" gradientUnits="userSpaceOnUse">
<stop stop-color="#ED1E79"/>
<stop offset="1" stop-color="#662D91"/>
</linearGradient>
<linearGradient id="paint38_linear_197_268" x1="52.0702" y1="557.699" x2="287.955" y2="353.871" gradientUnits="userSpaceOnUse">
<stop stop-color="#ED1E79"/>
<stop offset="1" stop-color="#662D91"/>
</linearGradient>
<linearGradient id="paint39_linear_197_268" x1="14.6211" y1="532.735" x2="250.506" y2="328.908" gradientUnits="userSpaceOnUse">
<stop stop-color="#ED1E79"/>
<stop offset="1" stop-color="#662D91"/>
</linearGradient>
</defs>
</svg>
