<svg width="561" height="342" viewBox="0 0 561 342" fill="none" xmlns="http://www.w3.org/2000/svg">
<path d="M-0.775013 22.6762C-1.55025 -120.041 121.731 -294.92 264.449 -295.695C407.166 -296.47 542.091 -122.994 542.867 19.7231C543.625 159.365 473.3 103.141 280.167 209.021C271.589 213.723 262.466 218.043 253.191 221.154C33.4499 294.869 -0.0156589 162.469 -0.775013 22.6762Z" fill="white" fill-opacity="0.15"/>
<path d="M-20.1229 101.588C-20.9682 -54.0394 113.465 -244.737 269.092 -245.582C424.719 -246.428 571.849 -57.2596 572.695 98.3675C573.522 250.641 496.835 189.331 286.232 304.788C276.879 309.916 266.93 314.626 256.816 318.019C17.198 398.403 -19.2948 254.026 -20.1229 101.588Z" fill="white" fill-opacity="0.15"/>
<path d="M-15.4025 -79.7154C-16.1777 -222.433 107.104 -397.311 249.821 -398.087C392.538 -398.862 527.464 -225.386 528.239 -82.6685C528.998 56.9739 458.672 0.749229 265.54 106.629C256.962 111.332 247.838 115.651 238.564 118.762C18.8225 192.478 -14.6431 60.0772 -15.4025 -79.7154Z" fill="white" fill-opacity="0.15"/>
</svg>
