<svg width="56" height="44" viewBox="0 0 56 44" fill="none" xmlns="http://www.w3.org/2000/svg">
<path d="M50.4322 43.898H5.55622C2.68296 43.898 0.324558 41.5396 0.324558 38.6663V5.43283C0.324558 2.55957 2.68296 0.201172 5.55622 0.201172H50.4322C53.3055 0.201172 55.6639 2.55957 55.6639 5.43283V38.6663C55.6805 41.5396 53.3221 43.898 50.4322 43.898Z" fill="#F6C859"/>
<path d="M21.6338 38.0685C21.4013 38.0685 21.1688 37.9356 21.0691 37.7197C20.9031 37.4042 21.0359 37.0222 21.3515 36.8561C22.2816 36.3745 23.5438 35.4942 24.2746 33.9496C25.2046 31.9898 24.9555 29.8639 24.5735 29.6812C24.4739 29.6314 24.0919 29.8307 23.8594 29.947C23.2448 30.2625 22.4144 30.6778 21.4511 30.3456C20.5045 30.0134 20.0394 29.1664 19.8069 28.7678C18.362 26.1104 17.9135 19.1847 19.4415 15.7634C19.9564 14.6174 20.6373 13.9531 21.501 13.7371C22.3812 13.5378 23.0954 13.9032 23.6601 14.2022C24.1251 14.4513 24.3742 14.551 24.5237 14.4679C25.1216 14.1025 25.105 11.9102 24.2746 10.1663C23.5438 8.62174 22.2816 7.72489 21.3515 7.25985C21.0359 7.09376 20.9197 6.71177 21.0691 6.39621C21.2352 6.08065 21.6172 5.96439 21.9328 6.11387C23.0289 6.67855 24.5403 7.74149 25.4206 9.61825C26.3008 11.4618 26.716 14.634 25.1714 15.5641C24.3908 16.0291 23.6601 15.6471 23.0622 15.3482C22.6137 15.099 22.1985 14.8997 21.7833 14.9828C21.2186 15.1156 20.8366 15.7634 20.6041 16.2782C19.2588 19.2844 19.6408 25.8115 20.9197 28.1533C21.1356 28.5519 21.4013 28.9837 21.8497 29.1332C22.2816 29.2826 22.6802 29.1 23.2615 28.801C23.8261 28.5187 24.4573 28.1865 25.1216 28.5187C26.5499 29.2162 26.4669 32.3054 25.4206 34.4977C24.5403 36.3578 23.0289 37.4374 21.9328 38.0021C21.8331 38.0519 21.7335 38.0685 21.6338 38.0685Z" fill="#7D662D"/>
<path d="M19.7069 16.9259H8.16401C7.81524 16.9259 7.51628 16.6436 7.51628 16.2782C7.51628 15.9294 7.79863 15.6305 8.16401 15.6305H19.7069C20.0557 15.6305 20.3546 15.9128 20.3546 16.2782C20.3546 16.6436 20.0557 16.9259 19.7069 16.9259Z" fill="#7D662D"/>
<path d="M19.7069 28.4688H8.16401C7.81524 28.4688 7.51628 28.1865 7.51628 27.8211C7.51628 27.4723 7.79863 27.1734 8.16401 27.1734H19.7069C20.0557 27.1734 20.3546 27.4557 20.3546 27.8211C20.3546 28.1699 20.0557 28.4688 19.7069 28.4688Z" fill="#7D662D"/>
<path d="M35.086 38.0685C34.9863 38.0685 34.8867 38.0519 34.787 38.0021C33.6909 37.4374 32.1795 36.3744 31.2993 34.4977C30.2529 32.3054 30.1699 29.2162 31.5982 28.5186C32.2625 28.2031 32.8937 28.5186 33.4583 28.801C34.0396 29.0999 34.4382 29.2826 34.8701 29.1331C35.3517 28.9671 35.6341 28.4522 35.8001 28.1532C37.079 25.8115 37.461 19.2843 36.1157 16.2782C35.8832 15.7633 35.4846 15.1156 34.9365 14.9827C34.5877 14.8997 34.3718 14.5509 34.4549 14.2188C34.5379 13.87 34.8867 13.6541 35.2188 13.7371C36.0825 13.9364 36.78 14.6174 37.2783 15.7633C38.8063 19.2013 38.3744 26.1104 36.9129 28.7678C36.697 29.1664 36.232 30.0134 35.2853 30.3456C34.322 30.6777 33.475 30.2625 32.8771 29.947C32.6445 29.8307 32.2459 29.6314 32.1629 29.6812C31.7809 29.8639 31.5318 31.9898 32.4618 33.9496C33.1926 35.4942 34.4549 36.391 35.3849 36.8561C35.7005 37.0222 35.8167 37.4041 35.6673 37.7197C35.551 37.9522 35.3185 38.0685 35.086 38.0685Z" fill="#7D662D"/>
<path d="M32.5287 14.3682C32.263 14.3682 32.0138 14.2022 31.9142 13.9364C30.5357 9.81753 33.7577 6.64531 34.7875 6.11384C35.103 5.94776 35.485 6.08063 35.6511 6.39619C35.8172 6.71175 35.6843 7.09374 35.3688 7.25983C34.9037 7.49235 31.9474 10.0334 33.1266 13.5378C33.2429 13.87 33.0602 14.2354 32.728 14.3516C32.6616 14.3516 32.5951 14.3682 32.5287 14.3682Z" fill="#7D662D"/>
<path d="M48.556 16.9259H37.0132C36.6644 16.9259 36.3654 16.6436 36.3654 16.2782C36.3654 15.9294 36.6478 15.6305 37.0132 15.6305H48.556C48.9048 15.6305 49.2038 15.9128 49.2038 16.2782C49.1872 16.6436 48.9048 16.9259 48.556 16.9259Z" fill="#7D662D"/>
<path d="M48.556 28.4688H37.0132C36.6644 28.4688 36.3654 28.1865 36.3654 27.8211C36.3654 27.4723 36.6478 27.1734 37.0132 27.1734H48.556C48.9048 27.1734 49.2038 27.4557 49.2038 27.8211C49.1872 28.1699 48.9048 28.4688 48.556 28.4688Z" fill="#7D662D"/>
</svg>
