<?xml version="1.8" encoding="utf-8"?>
<svg xmlns="http://www.w3.org/2000/svg">
<defs>
        <symbol id="chip" viewBox="0 0 58 45">
            <g fill="#fff">
                <path
                    d="M0 7.241C0 3.273 3.246.057 7.25.057h43.5C54.754.057 58 3.273 58 7.241v29.632c0 3.968-3.246 7.184-7.25 7.184H7.25C3.246 44.057 0 40.84 0 36.873V7.241z"
                    fill-opacity=".25" />
                <g fill-rule="evenodd">
                    <path
                        d="M50.75 1.457H7.25a5.85 5.85 0 0 0-5.85 5.85V37.21a5.85 5.85 0 0 0 5.85 5.85h43.5a5.85 5.85 0 0 0 5.85-5.85V7.307a5.85 5.85 0 0 0-5.85-5.85zM7.25.057A7.25 7.25 0 0 0 0 7.307V37.21a7.25 7.25 0 0 0 7.25 7.25h43.5A7.25 7.25 0 0 0 58 37.21V7.307a7.25 7.25 0 0 0-7.25-7.25H7.25z" />
                    <path
                        d="M16.313 14.416H.906v-1.4h15.406c2.389 0 4.325 1.936 4.325 4.325v26.244h-1.4v-7.769H.906v-1.4h18.331v-9.3H.906v-1.4h18.331v-6.375c0-1.615-1.31-2.925-2.925-2.925z" />
                </g>
            </g>
            <path
                d="M57.094 13.716H38.969m0 0v10.7m0-10.7V.967m0 42.617v-8.469m0 0v-10.7m0 10.7h18.125m-18.125-10.7h18.125"
                stroke="#fff" stroke-width="1.4" />
        </symbol>

        <symbol id="nfs" viewBox="0 0 29 38">
            <path fill-rule="evenodd" clip-rule="evenodd"
                d="M2.1566 25.6123L2.15068 25.6203L2.14495 25.6284C1.82564 26.0827 1.11037 26.2162 0.551019 25.8193C0.103257 25.5015 -0.0313293 24.7935 0.349975 24.2339C0.918898 23.5052 1.33209 22.6534 1.60348 21.8206C1.88601 20.9536 2.01743 19.9685 2.01233 19.0023C2.00724 18.0361 1.86544 17.0524 1.57377 16.1886C1.29361 15.3588 0.871463 14.5114 0.294886 13.7889C-0.0922993 13.2334 0.0348111 12.524 0.479196 12.2015C1.03433 11.7985 1.75096 11.9243 2.07505 12.3751L2.08087 12.3832L2.08686 12.3912C2.8045 13.342 3.3931 14.3985 3.74483 15.4349C4.11506 16.6542 4.35089 17.8336 4.35698 18.9897C4.3634 20.2063 4.24767 21.3577 3.80334 22.4913C3.31943 23.7258 2.85082 24.6718 2.1566 25.6123ZM7.34541 27.8701L7.35944 27.8502L7.37231 27.8295C8.96298 25.2688 9.88051 22.179 9.86354 18.9601C9.84656 15.742 8.89696 12.6629 7.28011 10.1199C6.92973 9.5616 7.08714 8.90147 7.67777 8.47278C8.07444 8.18487 8.81912 8.28678 9.26094 8.88173C11.0864 11.7919 12.189 15.3099 12.2082 18.9475C12.228 22.7093 11.1634 26.1131 9.36711 29.0446C8.95156 29.6193 8.31542 29.7804 7.76687 29.4547C7.17217 29.0169 7.06348 28.2712 7.34541 27.8701ZM16.6573 5.0563L16.673 5.08739L16.6911 5.1171C19.1647 9.16925 20.5392 13.8433 20.5659 18.9026C20.5926 23.9595 19.2687 28.6461 16.8401 32.7233C16.4678 33.3248 15.8392 33.4943 15.202 33.1964C14.6221 32.8166 14.4663 32.1873 14.7692 31.5516C16.8346 27.8662 18.1189 23.5234 18.0946 18.9158C18.0704 14.3288 16.8768 9.993 14.6317 6.30745C14.3279 5.67815 14.4784 5.05139 15.0515 4.66726C15.7429 4.33538 16.4164 4.5786 16.6573 5.0563ZM23.9818 1.19971L23.9925 1.22095L24.0044 1.24156C27.0019 6.44781 28.7629 12.4001 28.797 18.8583C28.831 25.3099 27.1364 31.2751 24.1996 36.5094C23.8266 37.104 23.201 37.2706 22.5667 36.974C21.9886 36.5954 21.832 35.9689 22.1311 35.3352C24.9603 30.4837 26.4839 24.8629 26.4523 18.8709C26.4206 12.8634 24.7037 7.26453 21.9611 2.46098C21.6175 1.75977 21.8597 1.07298 22.3394 0.828756C23.0435 0.470282 23.7367 0.71359 23.9818 1.19971Z"
                fill="white" />
        </symbol>

        <symbol id="visa" viewBox="0 0 76 24">
            <path
                d="M26.9862 23.6692L30.8262 1.03337H36.966L33.1249 23.6692H26.9862ZM55.2796 1.52995C53.5176 0.888606 51.6563 0.566786 49.7823 0.579478C43.723 0.579478 39.4543 3.64575 39.4175 8.04126C39.3842 11.29 42.4656 13.102 44.7918 14.1829C47.179 15.2916 47.9813 15.9984 47.9698 16.9882C47.9549 18.5034 46.0631 19.1951 44.3011 19.1951C41.8461 19.1951 40.5427 18.8487 38.5279 18.0091L37.7384 17.6499L36.8775 22.7107C38.3095 23.3412 40.9588 23.8887 43.708 23.9164C50.1547 23.9164 54.3394 20.8859 54.3877 16.1924C54.4107 13.6205 52.7787 11.663 49.2387 10.0496C47.0952 9.01017 45.7826 8.30569 45.7964 7.24665C45.7964 6.30773 46.9078 5.30302 49.3088 5.30302C50.8819 5.26764 52.445 5.56265 53.8981 6.16919L54.4475 6.43017L55.2796 1.52995ZM71.0532 1.03337H66.3294C64.8663 1.03337 63.7709 1.43529 63.1284 2.902L54.0486 23.5537H60.5114C60.5114 23.5537 61.5458 20.8074 61.7837 20.2045L69.5269 20.2138C69.7073 20.9945 70.2624 23.5537 70.2624 23.5537H76L71.0532 1.03337ZM63.5422 15.585C64.0491 14.2823 65.9857 9.2654 65.9857 9.2654C65.949 9.32545 66.4891 7.95576 66.7983 7.10692L67.2132 9.05641C67.2132 9.05641 68.3878 14.4532 68.6327 15.585H63.5422ZM21.7762 1.03337L15.7859 16.4153L15.148 13.2891C14.0331 9.68582 10.5587 5.7823 6.67389 3.82823L12.1517 23.5537L18.6248 23.5468L28.2574 1.03337H21.7464"
                fill="url(#paint0_linear_1_94)" />
            <path
                d="M9.92571 1.03316H0.0792979L0 1.50318C7.6937 3.37525 12.7841 7.89782 14.8977 13.3304L12.7473 2.93641C12.3761 1.50551 11.3003 1.07819 9.96825 1.02853"
                fill="url(#paint1_linear_1_94)" />
            <defs>
                <linearGradient id="paint0_linear_1_94" x1="41.3369" y1="0.579117" x2="41.3369" y2="23.9164"
                    gradientUnits="userSpaceOnUse">
                    <stop stop-color="white" />
                    <stop offset="1" stop-color="white" stop-opacity="0.75" />
                </linearGradient>
                <linearGradient id="paint1_linear_1_94" x1="7.44887" y1="1.02853" x2="7.44887" y2="13.3304"
                    gradientUnits="userSpaceOnUse">
                    <stop stop-color="white" />
                    <stop offset="1" stop-color="white" stop-opacity="0.75" />
                </linearGradient>
            </defs>
        </symbol>

        <symbol id="bank-360" viewBox="0 0 195 51">
            <path
                d="M17.4757 25.3047C19.1186 25.6113 20.4692 26.4336 21.5274 27.7716C22.5855 29.1095 23.1146 30.6426 23.1146 32.3708C23.1146 33.9318 22.7248 35.3116 21.9451 36.5102C21.1932 37.6809 20.0933 38.6007 18.6452 39.2697C17.1972 39.9387 15.4846 40.2732 13.5075 40.2732H0.934719V11.0889H12.9645C14.9416 11.0889 16.6403 11.4094 18.0604 12.0505C19.5085 12.6916 20.5945 13.5836 21.3185 14.7264C22.0704 15.8693 22.4463 17.1654 22.4463 18.6149C22.4463 20.3152 21.9868 21.7368 21.0679 22.8797C20.1768 24.0225 18.9794 24.8309 17.4757 25.3047ZM6.78253 23.1305H12.1291C13.5214 23.1305 14.5935 22.8239 15.3454 22.2107C16.0973 21.5696 16.4732 20.6637 16.4732 19.4929C16.4732 18.3222 16.0973 17.4163 15.3454 16.7752C14.5935 16.1341 13.5214 15.8135 12.1291 15.8135H6.78253V23.1305ZM12.6721 35.5067C14.0923 35.5067 15.1922 35.1722 15.9719 34.5032C16.7795 33.8342 17.1833 32.8865 17.1833 31.66C17.1833 30.4057 16.7656 29.4301 15.9302 28.7332C15.0948 28.0085 13.967 27.6461 12.5468 27.6461H6.78253V35.5067H12.6721Z"
                fill="white" />
            <path
                d="M26.2715 28.6078C26.2715 26.2664 26.731 24.1897 27.6499 22.3779C28.5967 20.5661 29.8638 19.1724 31.451 18.1968C33.0661 17.2212 34.8622 16.7334 36.8393 16.7334C38.5658 16.7334 40.0696 17.0818 41.3505 17.7787C42.6593 18.4755 43.7036 19.3536 44.4833 20.4128V17.1097H50.3729V40.2732H44.4833V36.8865C43.7314 37.9735 42.6872 38.8795 41.3505 39.6042C40.0417 40.301 38.5241 40.6495 36.7976 40.6495C34.8483 40.6495 33.0661 40.1477 31.451 39.1443C29.8638 38.1408 28.5967 36.7332 27.6499 34.9213C26.731 33.0816 26.2715 30.9771 26.2715 28.6078ZM44.4833 28.6914C44.4833 27.2698 44.2048 26.0573 43.6479 25.0538C43.0909 24.0225 42.3391 23.242 41.3923 22.7124C40.4455 22.1549 39.4291 21.8762 38.3431 21.8762C37.2571 21.8762 36.2546 22.141 35.3356 22.6706C34.4167 23.2002 33.6648 23.9807 33.08 25.012C32.5231 26.0155 32.2446 27.2141 32.2446 28.6078C32.2446 30.0015 32.5231 31.228 33.08 32.2872C33.6648 33.3186 34.4167 34.113 35.3356 34.6705C36.2824 35.2279 37.2849 35.5067 38.3431 35.5067C39.4291 35.5067 40.4455 35.2419 41.3923 34.7123C42.3391 34.1548 43.0909 33.3743 43.6479 32.3708C44.2048 31.3395 44.4833 30.113 44.4833 28.6914Z"
                fill="white" />
            <path
                d="M68.9077 16.7752C71.6645 16.7752 73.8922 17.6532 75.5909 19.4093C77.2895 21.1375 78.1389 23.5626 78.1389 26.6845V40.2732H72.291V27.4789C72.291 25.6392 71.8316 24.2316 70.9126 23.256C69.9937 22.2525 68.7406 21.7508 67.1533 21.7508C65.5382 21.7508 64.2573 22.2525 63.3105 23.256C62.3915 24.2316 61.9321 25.6392 61.9321 27.4789V40.2732H56.0843V17.1097H61.9321V19.9947C62.7118 18.9912 63.7003 18.2107 64.8978 17.6532C66.123 17.0679 67.4596 16.7752 68.9077 16.7752Z"
                fill="white" />
            <path
                d="M97.4004 40.2732L89.5476 30.4057V40.2732H83.6998V9.33279H89.5476V26.9354L97.3169 17.1097H104.919L94.7271 28.7332L105.003 40.2732H97.4004Z"
                fill="white" />
            <path d="M114.609 50.8813H108.719V0.385757H114.609V50.8813Z" fill="white" />
            <path
                d="M120.398 17.8205C120.537 15.0331 121.512 12.8867 123.322 11.3815C125.16 9.84846 127.569 9.08191 130.548 9.08191C132.581 9.08191 134.321 9.44428 135.769 10.169C137.218 10.8659 138.304 11.8275 139.028 13.054C139.779 14.2526 140.155 15.6184 140.155 17.1515C140.155 18.9076 139.696 20.3989 138.777 21.6253C137.886 22.8239 136.814 23.6323 135.561 24.0504V24.2176C137.176 24.7194 138.429 25.6113 139.32 26.8935C140.239 28.1758 140.698 29.8203 140.698 31.8273C140.698 33.4997 140.308 34.991 139.529 36.3011C138.777 37.6112 137.649 38.6425 136.145 39.3951C134.67 40.1199 132.887 40.4822 130.799 40.4822C127.652 40.4822 125.09 39.6878 123.113 38.099C121.136 36.5102 120.092 34.1687 119.98 31.0747H125.661C125.717 32.4405 126.176 33.5415 127.04 34.3778C127.931 35.1861 129.142 35.5903 130.674 35.5903C132.094 35.5903 133.18 35.2001 133.932 34.4196C134.711 33.6112 135.101 32.5799 135.101 31.3255C135.101 29.6531 134.572 28.4545 133.514 27.7298C132.456 27.005 130.813 26.6427 128.585 26.6427H127.374V21.8344H128.585C132.539 21.8344 134.516 20.5103 134.516 17.8623C134.516 16.6637 134.154 15.7299 133.43 15.0609C132.734 14.392 131.718 14.0575 130.381 14.0575C129.072 14.0575 128.056 14.4198 127.332 15.1446C126.636 15.8414 126.232 16.7334 126.121 17.8205H120.398Z"
                fill="white" />
            <path
                d="M161.109 17.4024C160.83 16.2317 160.343 15.3536 159.647 14.7683C158.978 14.1829 158.004 13.8902 156.723 13.8902C154.801 13.8902 153.381 14.6707 152.462 16.2317C151.571 17.7647 151.112 20.2734 151.084 23.7577C151.752 22.6427 152.727 21.7786 154.008 21.1654C155.289 20.5243 156.681 20.2037 158.185 20.2037C159.995 20.2037 161.596 20.594 162.988 21.3745C164.381 22.1549 165.467 23.2978 166.246 24.803C167.026 26.2803 167.416 28.0643 167.416 30.1548C167.416 32.1339 167.012 33.9039 166.205 35.4649C165.425 36.998 164.269 38.1965 162.738 39.0606C161.206 39.9247 159.382 40.3568 157.266 40.3568C154.37 40.3568 152.086 39.7157 150.415 38.4335C148.772 37.1513 147.617 35.3673 146.949 33.0816C146.308 30.7681 145.988 27.9249 145.988 24.5521C145.988 19.4511 146.865 15.6045 148.619 13.0122C150.374 10.392 153.144 9.08191 156.932 9.08191C159.855 9.08191 162.125 9.87633 163.74 11.4652C165.355 13.054 166.288 15.0331 166.539 17.4024H161.109ZM156.848 25.012C155.372 25.012 154.133 25.4441 153.13 26.3082C152.128 27.1723 151.627 28.4266 151.627 30.0712C151.627 31.7158 152.086 33.0119 153.005 33.9597C153.952 34.9074 155.275 35.3812 156.973 35.3812C158.477 35.3812 159.661 34.9213 160.524 34.0015C161.415 33.0816 161.86 31.8412 161.86 30.2803C161.86 28.6636 161.429 27.3813 160.566 26.4336C159.73 25.4859 158.491 25.012 156.848 25.012Z"
                fill="white" />
            <path
                d="M172.038 24.6357C172.038 19.8135 172.901 16.0365 174.627 13.3049C176.382 10.5732 179.278 9.20735 183.316 9.20735C187.353 9.20735 190.235 10.5732 191.962 13.3049C193.716 16.0365 194.593 19.8135 194.593 24.6357C194.593 29.4858 193.716 33.2907 191.962 36.0502C190.235 38.8098 187.353 40.1895 183.316 40.1895C179.278 40.1895 176.382 38.8098 174.627 36.0502C172.901 33.2907 172.038 29.4858 172.038 24.6357ZM188.829 24.6357C188.829 22.573 188.69 20.8448 188.412 19.4511C188.161 18.0295 187.632 16.8728 186.824 15.9808C186.045 15.0888 184.875 14.6428 183.316 14.6428C181.756 14.6428 180.573 15.0888 179.765 15.9808C178.985 16.8728 178.456 18.0295 178.178 19.4511C177.927 20.8448 177.802 22.573 177.802 24.6357C177.802 26.7542 177.927 28.5381 178.178 29.9876C178.428 31.4092 178.958 32.566 179.765 33.4579C180.573 34.322 181.756 34.7541 183.316 34.7541C184.875 34.7541 186.058 34.322 186.866 33.4579C187.674 32.566 188.203 31.4092 188.453 29.9876C188.704 28.5381 188.829 26.7542 188.829 24.6357Z"
                fill="white" />
        </symbol>

        <symbol id="mastercard-2" viewBox="0 0 73 44">
            <path
                d="M22.5122 43.7727C34.4364 43.7727 44.1028 34.1063 44.1028 22.1822C44.1028 10.258 34.4364 0.591606 22.5122 0.591606C10.5881 0.591606 0.921661 10.258 0.921661 22.1822C0.921661 34.1063 10.5881 43.7727 22.5122 43.7727Z"
                fill="white" />
            <path
                d="M51.3953 43.6552C39.4943 43.7059 29.7541 34.0669 29.7034 22.1491C29.6528 10.2312 39.3086 0.507899 51.2095 0.457257C63.1105 0.406614 72.8507 10.0456 72.9014 21.9634C72.952 33.8812 63.3131 43.6046 51.3953 43.6552ZM51.2433 7.64848C43.3094 7.68224 36.8778 14.1645 36.9115 22.1153C36.9453 30.0493 43.4275 36.4809 51.3784 36.4471C59.3123 36.4134 65.7439 29.9311 65.7101 21.9803C65.6764 14.0463 59.1773 7.61472 51.2433 7.64848Z"
                fill="white" />
        </symbol>

        <symbol id="chip-2" viewBox="0 0 56 44">
            <path
                d="M50.4322 43.898H5.55622C2.68296 43.898 0.324558 41.5396 0.324558 38.6663V5.43283C0.324558 2.55957 2.68296 0.201172 5.55622 0.201172H50.4322C53.3055 0.201172 55.6639 2.55957 55.6639 5.43283V38.6663C55.6805 41.5396 53.3221 43.898 50.4322 43.898Z"
                fill="#F6C859" />
            <path
                d="M21.6338 38.0685C21.4013 38.0685 21.1688 37.9356 21.0691 37.7197C20.9031 37.4042 21.0359 37.0222 21.3515 36.8561C22.2816 36.3745 23.5438 35.4942 24.2746 33.9496C25.2046 31.9898 24.9555 29.8639 24.5735 29.6812C24.4739 29.6314 24.0919 29.8307 23.8594 29.947C23.2448 30.2625 22.4144 30.6778 21.4511 30.3456C20.5045 30.0134 20.0394 29.1664 19.8069 28.7678C18.362 26.1104 17.9135 19.1847 19.4415 15.7634C19.9564 14.6174 20.6373 13.9531 21.501 13.7371C22.3812 13.5378 23.0954 13.9032 23.6601 14.2022C24.1251 14.4513 24.3742 14.551 24.5237 14.4679C25.1216 14.1025 25.105 11.9102 24.2746 10.1663C23.5438 8.62174 22.2816 7.72489 21.3515 7.25985C21.0359 7.09376 20.9197 6.71177 21.0691 6.39621C21.2352 6.08065 21.6172 5.96439 21.9328 6.11387C23.0289 6.67855 24.5403 7.74149 25.4206 9.61825C26.3008 11.4618 26.716 14.634 25.1714 15.5641C24.3908 16.0291 23.6601 15.6471 23.0622 15.3482C22.6137 15.099 22.1985 14.8997 21.7833 14.9828C21.2186 15.1156 20.8366 15.7634 20.6041 16.2782C19.2588 19.2844 19.6408 25.8115 20.9197 28.1533C21.1356 28.5519 21.4013 28.9837 21.8497 29.1332C22.2816 29.2826 22.6802 29.1 23.2615 28.801C23.8261 28.5187 24.4573 28.1865 25.1216 28.5187C26.5499 29.2162 26.4669 32.3054 25.4206 34.4977C24.5403 36.3578 23.0289 37.4374 21.9328 38.0021C21.8331 38.0519 21.7335 38.0685 21.6338 38.0685Z"
                fill="#7D662D" />
            <path
                d="M19.7069 16.9259H8.16401C7.81524 16.9259 7.51628 16.6436 7.51628 16.2782C7.51628 15.9294 7.79863 15.6305 8.16401 15.6305H19.7069C20.0557 15.6305 20.3546 15.9128 20.3546 16.2782C20.3546 16.6436 20.0557 16.9259 19.7069 16.9259Z"
                fill="#7D662D" />
            <path
                d="M19.7069 28.4688H8.16401C7.81524 28.4688 7.51628 28.1865 7.51628 27.8211C7.51628 27.4723 7.79863 27.1734 8.16401 27.1734H19.7069C20.0557 27.1734 20.3546 27.4557 20.3546 27.8211C20.3546 28.1699 20.0557 28.4688 19.7069 28.4688Z"
                fill="#7D662D" />
            <path
                d="M35.086 38.0685C34.9863 38.0685 34.8867 38.0519 34.787 38.0021C33.6909 37.4374 32.1795 36.3744 31.2993 34.4977C30.2529 32.3054 30.1699 29.2162 31.5982 28.5186C32.2625 28.2031 32.8937 28.5186 33.4583 28.801C34.0396 29.0999 34.4382 29.2826 34.8701 29.1331C35.3517 28.9671 35.6341 28.4522 35.8001 28.1532C37.079 25.8115 37.461 19.2843 36.1157 16.2782C35.8832 15.7633 35.4846 15.1156 34.9365 14.9827C34.5877 14.8997 34.3718 14.5509 34.4549 14.2188C34.5379 13.87 34.8867 13.6541 35.2188 13.7371C36.0825 13.9364 36.78 14.6174 37.2783 15.7633C38.8063 19.2013 38.3744 26.1104 36.9129 28.7678C36.697 29.1664 36.232 30.0134 35.2853 30.3456C34.322 30.6777 33.475 30.2625 32.8771 29.947C32.6445 29.8307 32.2459 29.6314 32.1629 29.6812C31.7809 29.8639 31.5318 31.9898 32.4618 33.9496C33.1926 35.4942 34.4549 36.391 35.3849 36.8561C35.7005 37.0222 35.8167 37.4041 35.6673 37.7197C35.551 37.9522 35.3185 38.0685 35.086 38.0685Z"
                fill="#7D662D" />
            <path
                d="M32.5287 14.3682C32.263 14.3682 32.0138 14.2022 31.9142 13.9364C30.5357 9.81753 33.7577 6.64531 34.7875 6.11384C35.103 5.94776 35.485 6.08063 35.6511 6.39619C35.8172 6.71175 35.6843 7.09374 35.3688 7.25983C34.9037 7.49235 31.9474 10.0334 33.1266 13.5378C33.2429 13.87 33.0602 14.2354 32.728 14.3516C32.6616 14.3516 32.5951 14.3682 32.5287 14.3682Z"
                fill="#7D662D" />
            <path
                d="M48.556 16.9259H37.0132C36.6644 16.9259 36.3654 16.6436 36.3654 16.2782C36.3654 15.9294 36.6478 15.6305 37.0132 15.6305H48.556C48.9048 15.6305 49.2038 15.9128 49.2038 16.2782C49.1872 16.6436 48.9048 16.9259 48.556 16.9259Z"
                fill="#7D662D" />
            <path
                d="M48.556 28.4688H37.0132C36.6644 28.4688 36.3654 28.1865 36.3654 27.8211C36.3654 27.4723 36.6478 27.1734 37.0132 27.1734H48.556C48.9048 27.1734 49.2038 27.4557 49.2038 27.8211C49.1872 28.1699 48.9048 28.4688 48.556 28.4688Z"
                fill="#7D662D" />
        </symbol>
</defs>
</svg>