<svg viewBox="0 0 29 38" fill="none" xmlns="http://www.w3.org/2000/svg">
<path fill-rule="evenodd" clip-rule="evenodd" d="M2.1566 25.6123L2.15068 25.6203L2.14495 25.6284C1.82564 26.0827 1.11037 26.2162 0.551019 25.8193C0.103257 25.5015 -0.0313293 24.7935 0.349975 24.2339C0.918898 23.5052 1.33209 22.6534 1.60348 21.8206C1.88601 20.9536 2.01743 19.9685 2.01233 19.0023C2.00724 18.0361 1.86544 17.0524 1.57377 16.1886C1.29361 15.3588 0.871463 14.5114 0.294886 13.7889C-0.0922993 13.2334 0.0348111 12.524 0.479196 12.2015C1.03433 11.7985 1.75096 11.9243 2.07505 12.3751L2.08087 12.3832L2.08686 12.3912C2.8045 13.342 3.3931 14.3985 3.74483 15.4349C4.11506 16.6542 4.35089 17.8336 4.35698 18.9897C4.3634 20.2063 4.24767 21.3577 3.80334 22.4913C3.31943 23.7258 2.85082 24.6718 2.1566 25.6123ZM7.34541 27.8701L7.35944 27.8502L7.37231 27.8295C8.96298 25.2688 9.88051 22.179 9.86354 18.9601C9.84656 15.742 8.89696 12.6629 7.28011 10.1199C6.92973 9.5616 7.08714 8.90147 7.67777 8.47278C8.07444 8.18487 8.81912 8.28678 9.26094 8.88173C11.0864 11.7919 12.189 15.3099 12.2082 18.9475C12.228 22.7093 11.1634 26.1131 9.36711 29.0446C8.95156 29.6193 8.31542 29.7804 7.76687 29.4547C7.17217 29.0169 7.06348 28.2712 7.34541 27.8701ZM16.6573 5.0563L16.673 5.08739L16.6911 5.1171C19.1647 9.16925 20.5392 13.8433 20.5659 18.9026C20.5926 23.9595 19.2687 28.6461 16.8401 32.7233C16.4678 33.3248 15.8392 33.4943 15.202 33.1964C14.6221 32.8166 14.4663 32.1873 14.7692 31.5516C16.8346 27.8662 18.1189 23.5234 18.0946 18.9158C18.0704 14.3288 16.8768 9.993 14.6317 6.30745C14.3279 5.67815 14.4784 5.05139 15.0515 4.66726C15.7429 4.33538 16.4164 4.5786 16.6573 5.0563ZM23.9818 1.19971L23.9925 1.22095L24.0044 1.24156C27.0019 6.44781 28.7629 12.4001 28.797 18.8583C28.831 25.3099 27.1364 31.2751 24.1996 36.5094C23.8266 37.104 23.201 37.2706 22.5667 36.974C21.9886 36.5954 21.832 35.9689 22.1311 35.3352C24.9603 30.4837 26.4839 24.8629 26.4523 18.8709C26.4206 12.8634 24.7037 7.26453 21.9611 2.46098C21.6175 1.75977 21.8597 1.07298 22.3394 0.828756C23.0435 0.470282 23.7367 0.71359 23.9818 1.19971Z" fill="white"/>
</svg>
