<svg width="469" height="354" viewBox="0 0 469 354" fill="none" xmlns="http://www.w3.org/2000/svg">
<path d="M328.417 1.0132C273.25 47.7224 266.532 106.299 203.482 219.096C172.37 274.735 141.428 318.794 116.174 352.961L72.453 353.147C58.3069 353.214 46.1864 344.386 41.3585 331.928C49.8664 323.369 58.0368 314.659 65.4305 306.218C171.796 184.811 136.043 103.919 234.711 8.82902C237.362 6.26313 240.029 3.78166 242.696 1.38458L328.417 1.0132Z" fill="url(#paint0_linear_197_515)"/>
<path d="M467.768 33.0362L468.088 106.603C444.202 139.487 399.316 192.29 333.481 222.928C268.355 253.246 233.327 238.341 182.955 282.906C169.011 295.229 143.268 318.676 137.495 352.32L92.2542 352.522C111.498 322.677 127.012 288.375 165.466 243.439C237.969 158.748 278.281 169.231 325.462 87.0042C329.345 80.235 353.805 36.9526 361.098 0.33812L434.445 0.0173806C440.995 -0.016381 447.139 1.85739 452.288 5.14915C461.572 10.973 467.717 21.2703 467.768 33.0362Z" fill="url(#paint1_linear_197_515)"/>
<path d="M370.416 0.32123C363.107 36.9526 338.646 80.235 334.764 87.0042C287.582 169.231 247.271 158.748 174.768 243.439C136.296 288.375 120.8 322.677 101.555 352.522L0.844589 352.961C26.0814 318.794 57.0408 274.719 88.1521 219.096C151.202 106.299 157.904 47.7394 213.087 1.01334L370.416 0.32123Z" fill="url(#paint2_linear_197_515)"/>
<path d="M468.612 228.094L469 317.697C469.084 336.013 454.28 350.935 435.964 351.02L263.257 351.763C290.317 321.782 325.648 289.32 375.683 264.759C413.293 246.308 442.041 240.771 468.612 228.094Z" fill="url(#paint3_linear_197_515)"/>
<path d="M468.088 106.603L468.611 228.094C442.041 240.771 413.293 246.308 375.682 264.759C325.665 289.321 290.316 321.782 263.256 351.763L137.477 352.303C143.234 318.659 168.994 295.212 182.937 282.889C233.327 238.324 268.337 253.229 333.464 222.911C399.316 192.29 444.202 139.486 468.088 106.603Z" fill="url(#paint4_linear_197_515)"/>
<defs>
<linearGradient id="paint0_linear_197_515" x1="40.6911" y1="177.763" x2="329.171" y2="176.514" gradientUnits="userSpaceOnUse">
<stop stop-color="#35C4FE"/>
<stop offset="1" stop-color="#FCEE21"/>
</linearGradient>
<linearGradient id="paint1_linear_197_515" x1="91.4796" y1="177.004" x2="468.382" y2="175.372" gradientUnits="userSpaceOnUse">
<stop stop-color="#2690BA"/>
<stop offset="1" stop-color="#219DFC"/>
</linearGradient>
<linearGradient id="paint2_linear_197_515" x1="0.0725482" y1="177.44" x2="371.166" y2="175.833" gradientUnits="userSpaceOnUse">
<stop stop-color="#35C4FE"/>
<stop offset="1" stop-color="#BCE068"/>
</linearGradient>
<linearGradient id="paint3_linear_197_515" x1="262.985" y1="290.382" x2="468.876" y2="289.49" gradientUnits="userSpaceOnUse">
<stop stop-color="#FE8235"/>
<stop offset="1" stop-color="#FCB721"/>
</linearGradient>
<linearGradient id="paint4_linear_197_515" x1="136.947" y1="230.178" x2="468.613" y2="228.741" gradientUnits="userSpaceOnUse">
<stop stop-color="#A435FE"/>
<stop offset="1" stop-color="#FC2121"/>
</linearGradient>
</defs>
</svg>
