<svg viewBox="0 0 195 51" xmlns="http://www.w3.org/2000/svg">
<path d="M17.4757 25.3047C19.1186 25.6113 20.4692 26.4336 21.5274 27.7716C22.5855 29.1095 23.1146 30.6426 23.1146 32.3708C23.1146 33.9318 22.7248 35.3116 21.9451 36.5102C21.1932 37.6809 20.0933 38.6007 18.6452 39.2697C17.1972 39.9387 15.4846 40.2732 13.5075 40.2732H0.934719V11.0889H12.9645C14.9416 11.0889 16.6403 11.4094 18.0604 12.0505C19.5085 12.6916 20.5945 13.5836 21.3185 14.7264C22.0704 15.8693 22.4463 17.1654 22.4463 18.6149C22.4463 20.3152 21.9868 21.7368 21.0679 22.8797C20.1768 24.0225 18.9794 24.8309 17.4757 25.3047ZM6.78253 23.1305H12.1291C13.5214 23.1305 14.5935 22.8239 15.3454 22.2107C16.0973 21.5696 16.4732 20.6637 16.4732 19.4929C16.4732 18.3222 16.0973 17.4163 15.3454 16.7752C14.5935 16.1341 13.5214 15.8135 12.1291 15.8135H6.78253V23.1305ZM12.6721 35.5067C14.0923 35.5067 15.1922 35.1722 15.9719 34.5032C16.7795 33.8342 17.1833 32.8865 17.1833 31.66C17.1833 30.4057 16.7656 29.4301 15.9302 28.7332C15.0948 28.0085 13.967 27.6461 12.5468 27.6461H6.78253V35.5067H12.6721Z" fill="white"/>
<path d="M26.2715 28.6078C26.2715 26.2664 26.731 24.1897 27.6499 22.3779C28.5967 20.5661 29.8638 19.1724 31.451 18.1968C33.0661 17.2212 34.8622 16.7334 36.8393 16.7334C38.5658 16.7334 40.0696 17.0818 41.3505 17.7787C42.6593 18.4755 43.7036 19.3536 44.4833 20.4128V17.1097H50.3729V40.2732H44.4833V36.8865C43.7314 37.9735 42.6872 38.8795 41.3505 39.6042C40.0417 40.301 38.5241 40.6495 36.7976 40.6495C34.8483 40.6495 33.0661 40.1477 31.451 39.1443C29.8638 38.1408 28.5967 36.7332 27.6499 34.9213C26.731 33.0816 26.2715 30.9771 26.2715 28.6078ZM44.4833 28.6914C44.4833 27.2698 44.2048 26.0573 43.6479 25.0538C43.0909 24.0225 42.3391 23.242 41.3923 22.7124C40.4455 22.1549 39.4291 21.8762 38.3431 21.8762C37.2571 21.8762 36.2546 22.141 35.3356 22.6706C34.4167 23.2002 33.6648 23.9807 33.08 25.012C32.5231 26.0155 32.2446 27.2141 32.2446 28.6078C32.2446 30.0015 32.5231 31.228 33.08 32.2872C33.6648 33.3186 34.4167 34.113 35.3356 34.6705C36.2824 35.2279 37.2849 35.5067 38.3431 35.5067C39.4291 35.5067 40.4455 35.2419 41.3923 34.7123C42.3391 34.1548 43.0909 33.3743 43.6479 32.3708C44.2048 31.3395 44.4833 30.113 44.4833 28.6914Z" fill="white"/>
<path d="M68.9077 16.7752C71.6645 16.7752 73.8922 17.6532 75.5909 19.4093C77.2895 21.1375 78.1389 23.5626 78.1389 26.6845V40.2732H72.291V27.4789C72.291 25.6392 71.8316 24.2316 70.9126 23.256C69.9937 22.2525 68.7406 21.7508 67.1533 21.7508C65.5382 21.7508 64.2573 22.2525 63.3105 23.256C62.3915 24.2316 61.9321 25.6392 61.9321 27.4789V40.2732H56.0843V17.1097H61.9321V19.9947C62.7118 18.9912 63.7003 18.2107 64.8978 17.6532C66.123 17.0679 67.4596 16.7752 68.9077 16.7752Z" fill="white"/>
<path d="M97.4004 40.2732L89.5476 30.4057V40.2732H83.6998V9.33279H89.5476V26.9354L97.3169 17.1097H104.919L94.7271 28.7332L105.003 40.2732H97.4004Z" fill="white"/>
<path d="M114.609 50.8813H108.719V0.385757H114.609V50.8813Z" fill="white"/>
<path d="M120.398 17.8205C120.537 15.0331 121.512 12.8867 123.322 11.3815C125.16 9.84846 127.569 9.08191 130.548 9.08191C132.581 9.08191 134.321 9.44428 135.769 10.169C137.218 10.8659 138.304 11.8275 139.028 13.054C139.779 14.2526 140.155 15.6184 140.155 17.1515C140.155 18.9076 139.696 20.3989 138.777 21.6253C137.886 22.8239 136.814 23.6323 135.561 24.0504V24.2176C137.176 24.7194 138.429 25.6113 139.32 26.8935C140.239 28.1758 140.698 29.8203 140.698 31.8273C140.698 33.4997 140.308 34.991 139.529 36.3011C138.777 37.6112 137.649 38.6425 136.145 39.3951C134.67 40.1199 132.887 40.4822 130.799 40.4822C127.652 40.4822 125.09 39.6878 123.113 38.099C121.136 36.5102 120.092 34.1687 119.98 31.0747H125.661C125.717 32.4405 126.176 33.5415 127.04 34.3778C127.931 35.1861 129.142 35.5903 130.674 35.5903C132.094 35.5903 133.18 35.2001 133.932 34.4196C134.711 33.6112 135.101 32.5799 135.101 31.3255C135.101 29.6531 134.572 28.4545 133.514 27.7298C132.456 27.005 130.813 26.6427 128.585 26.6427H127.374V21.8344H128.585C132.539 21.8344 134.516 20.5103 134.516 17.8623C134.516 16.6637 134.154 15.7299 133.43 15.0609C132.734 14.392 131.718 14.0575 130.381 14.0575C129.072 14.0575 128.056 14.4198 127.332 15.1446C126.636 15.8414 126.232 16.7334 126.121 17.8205H120.398Z" fill="white"/>
<path d="M161.109 17.4024C160.83 16.2317 160.343 15.3536 159.647 14.7683C158.978 14.1829 158.004 13.8902 156.723 13.8902C154.801 13.8902 153.381 14.6707 152.462 16.2317C151.571 17.7647 151.112 20.2734 151.084 23.7577C151.752 22.6427 152.727 21.7786 154.008 21.1654C155.289 20.5243 156.681 20.2037 158.185 20.2037C159.995 20.2037 161.596 20.594 162.988 21.3745C164.381 22.1549 165.467 23.2978 166.246 24.803C167.026 26.2803 167.416 28.0643 167.416 30.1548C167.416 32.1339 167.012 33.9039 166.205 35.4649C165.425 36.998 164.269 38.1965 162.738 39.0606C161.206 39.9247 159.382 40.3568 157.266 40.3568C154.37 40.3568 152.086 39.7157 150.415 38.4335C148.772 37.1513 147.617 35.3673 146.949 33.0816C146.308 30.7681 145.988 27.9249 145.988 24.5521C145.988 19.4511 146.865 15.6045 148.619 13.0122C150.374 10.392 153.144 9.08191 156.932 9.08191C159.855 9.08191 162.125 9.87633 163.74 11.4652C165.355 13.054 166.288 15.0331 166.539 17.4024H161.109ZM156.848 25.012C155.372 25.012 154.133 25.4441 153.13 26.3082C152.128 27.1723 151.627 28.4266 151.627 30.0712C151.627 31.7158 152.086 33.0119 153.005 33.9597C153.952 34.9074 155.275 35.3812 156.973 35.3812C158.477 35.3812 159.661 34.9213 160.524 34.0015C161.415 33.0816 161.86 31.8412 161.86 30.2803C161.86 28.6636 161.429 27.3813 160.566 26.4336C159.73 25.4859 158.491 25.012 156.848 25.012Z" fill="white"/>
<path d="M172.038 24.6357C172.038 19.8135 172.901 16.0365 174.627 13.3049C176.382 10.5732 179.278 9.20735 183.316 9.20735C187.353 9.20735 190.235 10.5732 191.962 13.3049C193.716 16.0365 194.593 19.8135 194.593 24.6357C194.593 29.4858 193.716 33.2907 191.962 36.0502C190.235 38.8098 187.353 40.1895 183.316 40.1895C179.278 40.1895 176.382 38.8098 174.627 36.0502C172.901 33.2907 172.038 29.4858 172.038 24.6357ZM188.829 24.6357C188.829 22.573 188.69 20.8448 188.412 19.4511C188.161 18.0295 187.632 16.8728 186.824 15.9808C186.045 15.0888 184.875 14.6428 183.316 14.6428C181.756 14.6428 180.573 15.0888 179.765 15.9808C178.985 16.8728 178.456 18.0295 178.178 19.4511C177.927 20.8448 177.802 22.573 177.802 24.6357C177.802 26.7542 177.927 28.5381 178.178 29.9876C178.428 31.4092 178.958 32.566 179.765 33.4579C180.573 34.322 181.756 34.7541 183.316 34.7541C184.875 34.7541 186.058 34.322 186.866 33.4579C187.674 32.566 188.203 31.4092 188.453 29.9876C188.704 28.5381 188.829 26.7542 188.829 24.6357Z" fill="white"/>
</svg>
