<svg width="58" height="45" viewBox="0 0 58 45" fill="none" xmlns="http://www.w3.org/2000/svg">
<g opacity="0.7">
<path d="M0 7.24071C0 3.27305 3.24594 0.0566406 7.25 0.0566406H50.75C54.7541 0.0566406 58 3.27306 58 7.24072V36.8726C58 40.8402 54.7541 44.0566 50.75 44.0566H7.25C3.24594 44.0566 0 40.8402 0 36.8726V7.24071Z" fill="white" fill-opacity="0.25"/>
<path fill-rule="evenodd" clip-rule="evenodd" d="M50.75 1.45664H7.25C4.01913 1.45664 1.4 4.07577 1.4 7.30663V37.2104C1.4 40.4413 4.01913 43.0604 7.25 43.0604H50.75C53.9809 43.0604 56.6 40.4413 56.6 37.2104V7.30664C56.6 4.07577 53.9809 1.45664 50.75 1.45664ZM7.25 0.0566406C3.24594 0.0566406 0 3.30257 0 7.30663V37.2104C0 41.2145 3.24594 44.4604 7.25 44.4604H50.75C54.7541 44.4604 58 41.2145 58 37.2104V7.30664C58 3.30258 54.7541 0.0566406 50.75 0.0566406H7.25Z" fill="white"/>
<path fill-rule="evenodd" clip-rule="evenodd" d="M16.3125 14.4156H0.90625V13.0156H16.3125C18.7011 13.0156 20.6375 14.952 20.6375 17.3406V43.5841H19.2375V35.8153H0.90625V34.4153H19.2375V25.1155H0.90625V23.7155H19.2375V17.3406C19.2375 15.7252 17.9279 14.4156 16.3125 14.4156Z" fill="white"/>
<path d="M57.0938 13.7155H38.9688M38.9688 13.7155V24.4154M38.9688 13.7155V0.966797M38.9688 43.584V35.1152M38.9688 35.1152V24.4154M38.9688 35.1152H57.0938M38.9688 24.4154H57.0938" stroke="white" stroke-width="1.4"/>
</g>
</svg>
