<svg width="73" height="44" viewBox="0 0 73 44" fill="none" xmlns="http://www.w3.org/2000/svg">
<path d="M22.5122 43.7727C34.4364 43.7727 44.1028 34.1063 44.1028 22.1822C44.1028 10.258 34.4364 0.591606 22.5122 0.591606C10.5881 0.591606 0.921661 10.258 0.921661 22.1822C0.921661 34.1063 10.5881 43.7727 22.5122 43.7727Z" fill="white"/>
<path d="M51.3953 43.6552C39.4943 43.7059 29.7541 34.0669 29.7034 22.1491C29.6528 10.2312 39.3086 0.507899 51.2095 0.457257C63.1105 0.406614 72.8507 10.0456 72.9014 21.9634C72.952 33.8812 63.3131 43.6046 51.3953 43.6552ZM51.2433 7.64848C43.3094 7.68224 36.8778 14.1645 36.9115 22.1153C36.9453 30.0493 43.4275 36.4809 51.3784 36.4471C59.3123 36.4134 65.7439 29.9311 65.7101 21.9803C65.6764 14.0463 59.1773 7.61472 51.2433 7.64848Z" fill="white"/>
</svg>
