<svg width="60" height="38" viewBox="0 0 60 38" fill="none" xmlns="http://www.w3.org/2000/svg">
<g opacity="0.8">
<g filter="url(#filter0_b_189_20)">
<ellipse cx="18.2318" cy="19.0997" rx="18.2318" ry="18.3198" fill="url(#paint0_linear_189_20)" fill-opacity="0.6"/>
</g>
<g filter="url(#filter1_b_189_20)">
<path d="M59.0709 19.1002C59.0709 29.2179 50.9082 37.42 40.8391 37.42C30.77 37.42 22.6073 29.2179 22.6073 19.1002C22.6073 8.98246 30.77 0.780415 40.8391 0.780415C50.9082 0.780415 59.0709 8.98246 59.0709 19.1002Z" fill="url(#paint1_linear_189_20)" fill-opacity="0.8"/>
</g>
<g filter="url(#filter2_b_189_20)">
<path d="M29.5355 4.72514C25.3152 8.08048 22.6074 13.2724 22.6074 19.0998C22.6074 24.9272 25.3152 30.1192 29.5355 33.4745C33.7558 30.1192 36.4636 24.9272 36.4636 19.0998C36.4636 13.2724 33.7558 8.08048 29.5355 4.72514Z" fill="url(#paint2_linear_189_20)" fill-opacity="0.6"/>
</g>
</g>
<defs>
<filter id="filter0_b_189_20" x="-24.4306" y="-23.6507" width="85.3248" height="85.5008" filterUnits="userSpaceOnUse" color-interpolation-filters="sRGB">
<feFlood flood-opacity="0" result="BackgroundImageFix"/>
<feGaussianBlur in="BackgroundImageFix" stdDeviation="12.2153"/>
<feComposite in2="SourceAlpha" operator="in" result="effect1_backgroundBlur_189_20"/>
<feBlend mode="normal" in="SourceGraphic" in2="effect1_backgroundBlur_189_20" result="shape"/>
</filter>
<filter id="filter1_b_189_20" x="-1.82331" y="-23.6502" width="85.3248" height="85.5008" filterUnits="userSpaceOnUse" color-interpolation-filters="sRGB">
<feFlood flood-opacity="0" result="BackgroundImageFix"/>
<feGaussianBlur in="BackgroundImageFix" stdDeviation="12.2153"/>
<feComposite in2="SourceAlpha" operator="in" result="effect1_backgroundBlur_189_20"/>
<feBlend mode="normal" in="SourceGraphic" in2="effect1_backgroundBlur_189_20" result="shape"/>
</filter>
<filter id="filter2_b_189_20" x="-1.82319" y="-19.7055" width="62.7174" height="77.6106" filterUnits="userSpaceOnUse" color-interpolation-filters="sRGB">
<feFlood flood-opacity="0" result="BackgroundImageFix"/>
<feGaussianBlur in="BackgroundImageFix" stdDeviation="12.2153"/>
<feComposite in2="SourceAlpha" operator="in" result="effect1_backgroundBlur_189_20"/>
<feBlend mode="normal" in="SourceGraphic" in2="effect1_backgroundBlur_189_20" result="shape"/>
</filter>
<linearGradient id="paint0_linear_189_20" x1="18.2318" y1="0.779922" x2="18.2318" y2="37.4195" gradientUnits="userSpaceOnUse">
<stop stop-color="white" stop-opacity="0.71"/>
<stop offset="1" stop-color="white"/>
</linearGradient>
<linearGradient id="paint1_linear_189_20" x1="40.8391" y1="0.780415" x2="40.8391" y2="37.42" gradientUnits="userSpaceOnUse">
<stop stop-color="white" stop-opacity="0.45"/>
<stop offset="1" stop-color="white"/>
</linearGradient>
<linearGradient id="paint2_linear_189_20" x1="29.5355" y1="4.72514" x2="29.5355" y2="33.4745" gradientUnits="userSpaceOnUse">
<stop stop-color="white" stop-opacity="0.07"/>
<stop offset="1" stop-color="white"/>
</linearGradient>
</defs>
</svg>
