<svg fill="none"><style><![CDATA[.B{color-interpolation-filters:sRGB}.C{flood-opacity:0}]]></style><g opacity=".8"><g filter="url(#A)"><ellipse cx="18.232" cy="19.123" rx="18.232" ry="18.32" fill="url(#D)" fill-opacity=".6"/></g><g filter="url(#B)"><path d="M59.071 19.124c0 10.118-8.163 18.32-18.232 18.32s-18.232-8.202-18.232-18.32S30.77.804 40.839.804s18.232 8.202 18.232 18.32z" fill="url(#E)" fill-opacity=".8"/></g><g filter="url(#C)"><path d="M29.536 4.749a18.32 18.32 0 0 0-6.928 14.375 18.32 18.32 0 0 0 6.928 14.375 18.32 18.32 0 0 0 6.928-14.375 18.32 18.32 0 0 0-6.928-14.375z" fill="url(#F)" fill-opacity=".6"/></g></g><defs><filter id="A" x="-24.431" y="-23.627" width="85.325" height="85.501" filterUnits="userSpaceOnUse" class="B"><feFlood class="C"/><feGaussianBlur stdDeviation="12.215"/><feComposite in2="SourceAlpha" operator="in"/><feBlend in="SourceGraphic"/></filter><filter id="B" x="-1.823" y="-23.626" width="85.325" height="85.501" filterUnits="userSpaceOnUse" class="B"><feFlood class="C"/><feGaussianBlur stdDeviation="12.215"/><feComposite in2="SourceAlpha" operator="in"/><feBlend in="SourceGraphic"/></filter><filter id="C" x="-1.823" y="-19.682" width="62.717" height="77.611" filterUnits="userSpaceOnUse" class="B"><feFlood class="C"/><feGaussianBlur stdDeviation="12.215"/><feComposite in2="SourceAlpha" operator="in"/><feBlend in="SourceGraphic"/></filter><linearGradient id="D" x1="18.232" y1=".804" x2="18.232" y2="37.443" gradientUnits="userSpaceOnUse"><stop stop-color="#fff" stop-opacity=".71"/><stop offset="1" stop-color="#fff"/></linearGradient><linearGradient id="E" x1="40.839" y1=".804" x2="40.839" y2="37.444" gradientUnits="userSpaceOnUse"><stop stop-color="#fff" stop-opacity=".45"/><stop offset="1" stop-color="#fff"/></linearGradient><linearGradient id="F" x1="29.536" y1="4.749" x2="29.536" y2="33.498" gradientUnits="userSpaceOnUse"><stop stop-color="#fff" stop-opacity=".07"/><stop offset="1" stop-color="#fff"/></linearGradient></defs></svg>