<svg width="76" height="24" viewBox="0 0 76 24" fill="none" xmlns="http://www.w3.org/2000/svg">
<path d="M26.9862 23.6692L30.8262 1.03337H36.966L33.1249 23.6692H26.9862ZM55.2796 1.52995C53.5176 0.888606 51.6563 0.566786 49.7823 0.579478C43.723 0.579478 39.4543 3.64575 39.4175 8.04126C39.3842 11.29 42.4656 13.102 44.7918 14.1829C47.179 15.2916 47.9813 15.9984 47.9698 16.9882C47.9549 18.5034 46.0631 19.1951 44.3011 19.1951C41.8461 19.1951 40.5427 18.8487 38.5279 18.0091L37.7384 17.6499L36.8775 22.7107C38.3095 23.3412 40.9588 23.8887 43.708 23.9164C50.1547 23.9164 54.3394 20.8859 54.3877 16.1924C54.4107 13.6205 52.7787 11.663 49.2387 10.0496C47.0952 9.01017 45.7826 8.30569 45.7964 7.24665C45.7964 6.30773 46.9078 5.30302 49.3088 5.30302C50.8819 5.26764 52.445 5.56265 53.8981 6.16919L54.4475 6.43017L55.2796 1.52995ZM71.0532 1.03337H66.3294C64.8663 1.03337 63.7709 1.43529 63.1284 2.902L54.0486 23.5537H60.5114C60.5114 23.5537 61.5458 20.8074 61.7837 20.2045L69.5269 20.2138C69.7073 20.9945 70.2624 23.5537 70.2624 23.5537H76L71.0532 1.03337ZM63.5422 15.585C64.0491 14.2823 65.9857 9.2654 65.9857 9.2654C65.949 9.32545 66.4891 7.95576 66.7983 7.10692L67.2132 9.05641C67.2132 9.05641 68.3878 14.4532 68.6327 15.585H63.5422ZM21.7762 1.03337L15.7859 16.4153L15.148 13.2891C14.0331 9.68582 10.5587 5.7823 6.67389 3.82823L12.1517 23.5537L18.6248 23.5468L28.2574 1.03337H21.7464" fill="url(#paint0_linear_1_94)"/>
<path d="M9.92571 1.03316H0.0792979L0 1.50318C7.6937 3.37525 12.7841 7.89782 14.8977 13.3304L12.7473 2.93641C12.3761 1.50551 11.3003 1.07819 9.96825 1.02853" fill="url(#paint1_linear_1_94)"/>
<defs>
<linearGradient id="paint0_linear_1_94" x1="41.3369" y1="0.579117" x2="41.3369" y2="23.9164" gradientUnits="userSpaceOnUse">
<stop stop-color="white"/>
<stop offset="1" stop-color="white" stop-opacity="0.75"/>
</linearGradient>
<linearGradient id="paint1_linear_1_94" x1="7.44887" y1="1.02853" x2="7.44887" y2="13.3304" gradientUnits="userSpaceOnUse">
<stop stop-color="white"/>
<stop offset="1" stop-color="white" stop-opacity="0.75"/>
</linearGradient>
</defs>
</svg>
